<svg viewBox="0 0 7 4" xmlns="http://www.w3.org/2000/svg">
<path d="M5.17923 3.5L3.0875 1.40829L0.995784 3.5C0.767992 3.72778 0.398684 3.72778 0.170835 3.5C0.142368 3.47148 0.117459 3.44079 0.0961089 3.40848C-0.0533995 3.18203 -0.0284905 2.87432 0.170835 2.67499L2.67503 0.170802C2.78446 0.0614273 2.9328 2.33916e-06 3.0875 2.35268e-06C3.24226 2.36621e-06 3.3906 0.0614273 3.49998 0.170802L6.0042 2.67499C6.232 2.90284 6.232 3.27215 6.0042 3.5C5.97572 3.52845 5.94503 3.55337 5.91268 3.57472C5.68626 3.72422 5.37857 3.6993 5.17923 3.5Z" fill="#898989"/>
</svg>
